<?xml version="1.0" encoding="UTF-8"?>
<svg version="1.1" xmlns="http://www.w3.org/2000/svg" width="512" height="512">
<path d="M0 0 C1.87431827 -0.00461367 3.74863293 -0.01096972 5.62294006 -0.01890898 C10.75326422 -0.03556125 15.88328961 -0.02737454 21.01361465 -0.0149641 C26.55426273 -0.00589916 32.0948601 -0.01989052 37.63549805 -0.03088379 C48.48165152 -0.04865813 59.32769418 -0.04483382 70.17385197 -0.03323323 C78.98977123 -0.02419493 87.80565946 -0.02297663 96.62158203 -0.02732849 C97.87692969 -0.02794142 99.13227736 -0.02855436 100.42566586 -0.02918586 C102.97598395 -0.03046478 105.52630203 -0.03176163 108.0766201 -0.03307623 C131.30233641 -0.04415388 154.5279879 -0.03267138 177.75369048 -0.01170584 C198.94259682 0.00727569 220.131407 0.00557714 241.3203125 -0.0135498 C265.14257624 -0.03498213 288.96478696 -0.04338025 312.7870636 -0.03110075 C315.32793171 -0.02982657 317.86879984 -0.02856909 320.40966797 -0.02732849 C322.28483801 -0.02640284 322.28483801 -0.02640284 324.19789028 -0.02545848 C333.00189443 -0.02200667 341.80586442 -0.02783032 350.60986328 -0.0372467 C361.34089907 -0.04847201 372.07181783 -0.04541533 382.80284023 -0.02412373 C388.27661516 -0.0136206 393.75019507 -0.00947909 399.22396851 -0.02272034 C404.23765406 -0.03466508 409.25096436 -0.02804714 414.26461601 -0.00681013 C416.07536894 -0.00235292 417.88615376 -0.00459045 419.69688606 -0.01431328 C432.55019532 -0.07801966 443.28696613 0.96330156 453.51171875 9.52355957 C459.92487162 15.87420608 464.56468866 24.1333555 464.85620117 33.27160645 C464.85573327 35.00670499 464.83920872 36.74185607 464.80859375 38.47668457 C464.80434891 39.39759888 464.80010406 40.31851318 464.79573059 41.26733398 C464.77906565 44.18117702 464.74143688 47.09430396 464.703125 50.00793457 C464.68806239 51.99490368 464.67437675 53.98188374 464.66210938 55.96887207 C464.62920216 60.81549814 464.57750531 65.66159535 464.515625 70.50793457 C463.2706424 70.50940113 462.02565979 70.51086769 460.74295044 70.51237869 C431.17984981 70.54809197 401.61686213 70.60434941 372.05385596 70.68585552 C368.41399682 70.6958728 364.77413724 70.70571696 361.13427734 70.7154541 C360.04734598 70.71836616 360.04734598 70.71836616 358.93845642 70.72133705 C347.21035325 70.75234577 335.48226965 70.76933454 323.75413322 70.78112879 C311.71714674 70.79354621 299.6802628 70.82106092 287.64334106 70.86254764 C280.88355561 70.88541407 274.12390258 70.90133672 267.36407471 70.89981842 C261.00125964 70.8990736 254.63876849 70.91695344 248.27603722 70.9491024 C245.94120447 70.95761954 243.60633547 70.95933908 241.27149391 70.95373726 C238.08157743 70.94710349 234.89269341 70.96500442 231.70288086 70.98895264 C230.78068316 70.98119222 229.85848545 70.9734318 228.90834236 70.96543622 C222.99003624 71.04399704 218.45141331 72.13269287 213.515625 75.50793457 C211.23994816 77.92073255 211.23994816 77.92073255 209.62109375 80.76965332 C208.98171875 81.79703613 208.34234375 82.82441895 207.68359375 83.88293457 C207.03003906 84.97605957 206.37648437 86.06918457 205.703125 87.19543457 C204.99946445 88.3386375 204.29371083 89.48055459 203.5859375 90.62121582 C202.1845177 92.88361973 200.7935946 95.15138229 199.40771484 97.42346191 C197.01106956 101.3304576 194.5268015 105.17401831 192.015625 109.00793457 C186.63140375 117.29584153 181.31376726 125.62646406 175.99609375 133.95715332 C175.34382812 134.97809082 174.6915625 135.99902832 174.01953125 137.05090332 C173.15050171 138.41251587 173.15050171 138.41251587 172.26391602 139.80163574 C171.68697998 140.69471436 171.11004395 141.58779297 170.515625 142.50793457 C169.97199436 143.53887049 169.42836372 144.5698064 168.86825943 145.6319828 C166.515625 148.50793457 166.515625 148.50793457 163.18107224 149.24622154 C161.82933169 149.2713769 160.47673226 149.2633756 159.12518311 149.22946167 C158.37855888 149.23458822 157.63193465 149.23971477 156.86268544 149.24499667 C154.35907729 149.25488575 151.85787819 149.22187597 149.35449219 149.18908691 C147.56082211 149.1873946 145.76714788 149.18834421 143.97348022 149.19174194 C139.1016085 149.19346568 134.23062049 149.1581545 129.35895443 149.1162982 C124.26874695 149.07882721 119.17851992 149.07526871 114.0881958 149.06814575 C104.447907 149.04948622 94.80802575 149.00023414 85.16791654 148.94004881 C74.19348317 148.87301818 63.21903048 148.84000334 52.24444342 148.8098762 C29.66794454 148.74713614 7.09180759 148.6415795 -15.484375 148.50793457 C-15.37726091 174.15903178 -15.26452224 199.81009889 -15.14503574 225.46114159 C-15.08969163 237.37060935 -15.0362077 249.28008011 -14.98706055 261.1895752 C-14.94423325 271.56649073 -14.89795897 281.94338409 -14.84749645 292.32026541 C-14.82088378 297.81779577 -14.79603042 303.3153217 -14.77530098 308.81287766 C-14.755755 313.98215667 -14.73161738 319.15139346 -14.70388412 324.32063484 C-14.69450287 326.2226046 -14.68683147 328.12458364 -14.68095589 330.02656746 C-14.67271293 332.61393957 -14.65844143 335.20120868 -14.64259338 337.7885437 C-14.64161528 338.54923483 -14.64063717 339.30992596 -14.63962942 340.09366834 C-14.67647908 343.92777774 -14.67647908 343.92777774 -13.484375 347.50793457 C27.600625 348.00293457 27.600625 348.00293457 69.515625 348.50793457 C68.525625 341.57793457 68.525625 341.57793457 67.515625 334.50793457 C65.1744575 298.9647553 76.71446412 262.47524034 99.92578125 235.34777832 C124.22470247 208.70325988 155.61329959 188.39714784 192.515625 185.50793457 C197.66176396 185.31480494 202.80408008 185.26228885 207.953125 185.25793457 C209.02700974 185.25692245 209.02700974 185.25692245 210.12258911 185.25588989 C220.89557884 185.27202367 231.03883634 185.79213899 241.515625 188.50793457 C242.17385254 188.66358887 242.83208008 188.81924316 243.51025391 188.97961426 C260.68192268 193.06558246 277.42844166 200.86334626 291.515625 211.50793457 C292.38574219 212.15762207 293.25585938 212.80730957 294.15234375 213.47668457 C313.25028902 228.42047824 327.61425387 246.41242199 337.515625 268.50793457 C338.05832031 269.67195801 338.60101563 270.83598145 339.16015625 272.03527832 C346.48720217 288.82256075 349.68516716 307.5573119 349.703125 325.82043457 C349.71730469 327.13656738 349.73148437 328.4527002 349.74609375 329.80871582 C349.43860111 336.07843854 348.40336342 342.29376566 347.515625 348.50793457 C374.905625 348.17793457 402.295625 347.84793457 430.515625 347.50793457 C432.05785591 344.42347276 431.66949288 341.17424749 431.67384338 337.7885437 C431.68123787 336.58221535 431.68123787 336.58221535 431.68878174 335.35151672 C431.70422529 332.63331322 431.71253681 329.91513315 431.72094727 327.19689941 C431.73065778 325.22422895 431.74080297 323.25156059 431.75134945 321.27889442 C431.7784651 315.98125633 431.79960673 310.6836099 431.81954193 305.38594055 C431.83912319 300.42048361 431.86405062 295.45505924 431.8885498 290.48962402 C431.95713376 275.95408531 432.01709909 261.41850698 432.078125 246.88293457 C432.2225 214.41918457 432.366875 181.95543457 432.515625 148.50793457 C356.615625 148.50793457 280.715625 148.50793457 202.515625 148.50793457 C210.48869632 134.8398123 210.48869632 134.8398123 214.265625 129.32043457 C215.11565525 128.06204339 215.96456656 126.80289583 216.8125 125.54309082 C217.46702148 124.57073486 217.46702148 124.57073486 218.13476562 123.57873535 C221.9729365 117.82283624 225.69413441 111.98883453 229.4375 106.17102051 C230.45062179 104.60820673 231.48251131 103.05760511 232.515625 101.50793457 C235.59789694 101.213878 238.47913237 101.11711662 241.56375122 101.14717102 C242.51284422 101.14460775 243.46193722 101.14204447 244.43979061 101.13940352 C247.63988012 101.13443759 250.83950429 101.15100485 254.03955078 101.1673584 C256.32553089 101.16820406 258.61151182 101.16773072 260.89749146 101.16603088 C267.12038582 101.16516714 273.34310809 101.18285416 279.56596231 101.20375276 C286.06291751 101.22245654 292.55987628 101.22426501 299.05685425 101.22782898 C309.96713341 101.23610572 320.87734874 101.25486762 331.78759766 101.28161621 C343.02652672 101.30914202 354.26543858 101.33038282 365.50439453 101.34313965 C366.19685206 101.34392782 366.88930959 101.34471599 367.60275067 101.34552804 C371.07651383 101.34944308 374.5502771 101.35323422 378.02404046 101.35696375 C406.8546106 101.38807746 435.68511628 101.44115136 464.515625 101.50793457 C464.60693157 133.56840073 464.67769266 165.62882981 464.71988632 197.68939566 C464.72488897 201.47689061 464.73006628 205.26438531 464.73535156 209.05187988 C464.73692543 210.18288353 464.73692543 210.18288353 464.73853108 211.33673574 C464.75592277 223.53558892 464.78745362 235.73436647 464.82423618 247.93317483 C464.86168007 260.45601583 464.88386813 272.97881729 464.89197898 285.50171196 C464.89745962 293.22520665 464.91475176 300.94848757 464.94729087 308.67191644 C464.97099114 314.60039522 464.97343614 320.52876508 464.96805573 326.45729256 C464.96915469 328.88484193 464.97709159 331.31239953 464.9924469 333.73990059 C465.01241783 337.06040554 465.00753752 340.38000404 464.99664307 343.70053101 C465.01412012 345.13345326 465.01412012 345.13345326 465.03195024 346.59532344 C464.9382369 357.19970569 461.14398778 364.72614426 453.8828125 372.30871582 C445.67857447 379.93080495 437.5677701 381.82229431 426.63305664 381.73498535 C425.66643097 381.7352774 424.6998053 381.73556946 423.70388794 381.73587036 C420.52775917 381.73448363 417.35186874 381.71895333 414.17578125 381.70324707 C411.96618274 381.69951461 409.75658257 381.69666874 407.54698181 381.69467163 C401.74538565 381.68705357 395.94389041 381.66742073 390.14233398 381.64526367 C384.216648 381.62476589 378.29094563 381.61566151 372.36523438 381.60559082 C360.7486537 381.58417314 349.13214776 381.55005924 337.515625 381.50793457 C337.06993164 382.88743286 337.06993164 382.88743286 336.61523438 384.2947998 C331.14993716 400.26477686 319.9033376 413.40983536 308.515625 425.50793457 C307.69384766 426.40898926 307.69384766 426.40898926 306.85546875 427.32824707 C288.23153611 447.00463782 261.75613653 459.22647568 235.515625 464.50793457 C233.9378125 464.84437988 233.9378125 464.84437988 232.328125 465.18762207 C196.40029453 471.61588586 158.57312263 462.79920042 128.515625 442.50793457 C116.40151133 433.72983552 104.72130617 423.24028338 95.703125 411.25793457 C95.1968457 410.58552734 94.69056641 409.91312012 94.16894531 409.22033691 C79.515625 389.14409825 79.515625 389.14409825 79.515625 381.50793457 C77.68518394 381.51792732 77.68518394 381.51792732 75.81776428 381.52812195 C64.29785453 381.58903006 52.77797761 381.63395382 41.25794315 381.66337109 C35.33587476 381.67900338 29.41393674 381.70019733 23.49194336 381.73425293 C17.77312889 381.76693299 12.05443954 381.7848059 6.33553886 381.7925663 C4.15753651 381.79809427 1.97954073 381.80888899 -0.19840813 381.82512474 C-3.25733934 381.8470137 -6.31575848 381.84989668 -9.37475586 381.84851074 C-10.71480431 381.86468948 -10.71480431 381.86468948 -12.08192444 381.88119507 C-22.98272113 381.8280176 -30.59093763 378.10068636 -38.3984375 370.69152832 C-46.7416238 361.90455552 -48.07755192 352.77080585 -47.99230957 340.99645996 C-47.99692636 339.65026458 -48.00328448 338.30407425 -48.01121855 336.95789433 C-48.02782854 333.28274176 -48.01970392 329.60800772 -48.00727367 325.93285418 C-47.9981911 321.96004006 -48.01220875 317.98729589 -48.02319336 314.01449585 C-48.04094906 306.24129795 -48.03715178 298.46825484 -48.0255428 290.69505095 C-48.01649712 284.3757588 -48.01528938 278.05650991 -48.01963806 271.73721313 C-48.02025099 270.8366875 -48.02086393 269.93616186 -48.02149543 269.00834757 C-48.02277438 267.17875821 -48.02407123 265.34916886 -48.0253858 263.51957953 C-48.03678296 246.37680318 -48.02369146 229.23411249 -48.00218433 212.0913502 C-47.98431413 197.39260367 -47.98741848 182.69398351 -48.00585938 167.99523926 C-48.02728136 150.91242487 -48.0356844 133.8296855 -48.02341032 116.74685955 C-48.02213617 114.92412505 -48.02087868 113.10139053 -48.01963806 111.27865601 C-48.01902096 110.38191306 -48.01840386 109.48517011 -48.01776806 108.56125313 C-48.01431914 102.25196818 -48.0201336 95.94273093 -48.02955627 89.63345337 C-48.0407924 81.94106312 -48.03770235 74.24883607 -48.0164333 66.55646443 C-48.00594453 62.63414866 -48.0017637 58.71210467 -48.01502991 54.78979111 C-48.0270051 51.19472225 -48.02030792 47.60017546 -47.9991197 44.00515354 C-47.99258009 42.09828902 -48.00554384 40.19138787 -48.01934862 38.28456211 C-47.92027917 27.3686717 -44.98564859 18.58355162 -37.484375 10.50793457 C-26.71270185 0.28076358 -14.04391047 -0.07540956 0 0 Z M28.19921875 65.05090332 C25.3831639 69.33876384 24.54270408 73.46463023 25.515625 78.50793457 C27.43973444 83.82625954 30.4392647 86.91998618 35.515625 89.50793457 C40.47367042 90.88516941 44.00065022 90.55268613 48.65234375 88.60168457 C52.30721705 86.45626628 54.62749106 83.28420245 56.515625 79.50793457 C57.05598094 74.58272307 57.05997969 70.63851739 54.890625 66.13293457 C51.66078785 62.56311456 49.06557971 59.92098508 44.15234375 59.12512207 C37.6206983 58.82777857 32.62559013 59.86272321 28.19921875 65.05090332 Z M79.19921875 65.05090332 C76.3831639 69.33876384 75.54270408 73.46463023 76.515625 78.50793457 C78.43973444 83.82625954 81.4392647 86.91998618 86.515625 89.50793457 C91.47367042 90.88516941 95.00065022 90.55268613 99.65234375 88.60168457 C103.30721705 86.45626628 105.62749106 83.28420245 107.515625 79.50793457 C108.05598094 74.58272307 108.05997969 70.63851739 105.890625 66.13293457 C102.66078785 62.56311456 100.06557971 59.92098508 95.15234375 59.12512207 C88.6206983 58.82777857 83.62559013 59.86272321 79.19921875 65.05090332 Z M131.515625 63.50793457 C128.85261258 67.15080912 127.66663747 70.5683014 126.953125 75.00793457 C127.85896685 80.64428387 130.46244465 84.78770239 134.828125 88.44543457 C140.06823819 90.51710723 143.85787743 90.98559065 149.203125 89.44543457 C153.52470501 86.91771796 156.24575134 84.04768189 158.515625 79.50793457 C159.05598094 74.58272307 159.05997969 70.63851739 156.890625 66.13293457 C153.66078785 62.56311456 151.06557971 59.92098508 146.15234375 59.12512207 C140.48629911 58.86718377 135.7416955 59.50605879 131.515625 63.50793457 Z M133.515625 248.50793457 C132.76925781 249.1808252 132.02289063 249.85371582 131.25390625 250.54699707 C111.72092352 268.75050977 102.0446545 295.70661751 100.29296875 321.82824707 C99.89220248 336.84826981 102.4817854 352.6878531 108.515625 366.50793457 C109.175625 366.83793457 109.835625 367.16793457 110.515625 367.50793457 C110.91652344 366.8298877 111.31742188 366.15184082 111.73046875 365.45324707 C122.65208189 347.57251082 137.27748548 335.88370219 157.5546875 330.35559082 C164.75064293 328.68172484 172.16959592 328.14092574 179.515625 327.50793457 C177.08028311 325.06450184 174.64514202 322.63063491 172.140625 320.25793457 C160.71666111 308.2899724 156.14442256 295.6765252 156.30078125 279.17199707 C157.09305362 265.66015192 162.86435892 253.00839962 172.515625 243.50793457 C185.58799325 233.08384782 198.88826035 229.53298249 215.515625 230.50793457 C229.11753241 232.599269 241.83197301 238.91754477 250.14428711 250.08190918 C259.25834564 262.98519064 262.4304554 277.05399825 260.01953125 292.73449707 C256.97670256 306.04042593 250.40654385 317.63558014 239.01953125 325.41418457 C238.52324219 325.77512207 238.02695312 326.13605957 237.515625 326.50793457 C237.515625 326.83793457 237.515625 327.16793457 237.515625 327.50793457 C238.12857422 327.56739258 238.74152344 327.62685059 239.37304688 327.68811035 C261.37415213 329.92195481 279.82444617 334.56911233 295.59375 351.11340332 C299.71308105 356.24582189 303.10642721 361.88907155 306.515625 367.50793457 C310.10441582 364.78756835 310.90959485 360.90032118 312.078125 356.75793457 C312.4023645 355.62327759 312.4023645 355.62327759 312.7331543 354.46569824 C320.55308993 325.99684928 316.23792513 297.04752285 301.88671875 271.50793457 C287.33618168 246.52705307 263.96844349 229.07058786 236.33984375 221.08459473 C199.5574 211.48523385 160.63746512 222.17156512 133.515625 248.50793457 Z " fill="#4BAF4F" transform="translate(47.484375,22.4920654296875)"/>
</svg>
